<svg width="92" height="19" viewBox="0 0 92 19" fill="none" xmlns="http://www.w3.org/2000/svg">
<path d="M11.6585 11.072L8.75447 3.68L5.82647 11.072H11.6585ZM17.2265 18.128H14.4425L12.6185 13.544H4.84247L2.99447 18.128H0.234469L7.53047 0.223999H10.1465L17.2265 18.128ZM37.3162 18.032H34.8202V9.584C34.8202 7.888 34.0682 7.04 32.5642 7.04C31.8282 7.04 31.2202 7.344 30.7402 7.952C30.1642 8.656 29.8762 9.648 29.8762 10.928V18.032H27.3562V9.584C27.3562 7.888 26.6042 7.04 25.1002 7.04C24.3482 7.04 23.7482 7.336 23.3002 7.928C22.7402 8.632 22.4602 9.632 22.4602 10.928V18.032H19.9162V8.36C19.9162 7.624 19.9082 6.984 19.8922 6.44C19.8762 5.896 19.8522 5.44 19.8202 5.072H22.3162V6.248C23.0362 5.272 24.1642 4.784 25.7002 4.784C26.3562 4.784 27.0122 4.976 27.6682 5.36C28.3402 5.776 28.8122 6.296 29.0842 6.92C29.9802 5.496 31.3162 4.784 33.0922 4.784C34.4522 4.784 35.5082 5.192 36.2602 6.008C36.9642 6.76 37.3162 7.792 37.3162 9.104V18.032ZM48.433 18.152V16.88C47.649 17.904 46.521 18.416 45.049 18.416C43.449 18.416 42.265 17.968 41.497 17.072C40.953 16.416 40.681 15.616 40.681 14.672C40.681 11.408 43.081 9.776 47.881 9.776H48.241V9.344C48.241 7.776 47.513 6.992 46.057 6.992C44.745 6.992 43.449 7.336 42.169 8.024V5.672C43.385 5.048 44.729 4.736 46.201 4.736C47.737 4.736 48.857 5.096 49.561 5.816C50.313 6.6 50.689 7.816 50.689 9.464V15.056C50.689 16.528 50.737 17.56 50.833 18.152H48.433ZM48.241 12.008H47.737C46.489 12.008 45.529 12.12 44.857 12.344C43.785 12.696 43.249 13.392 43.249 14.432C43.249 15.584 43.913 16.16 45.241 16.16C47.241 16.16 48.241 14.944 48.241 12.512V12.008ZM63.3352 18.032H53.5912V16.136L60.2872 7.352H53.8792V5.072H63.3352V6.992L56.6152 15.8H63.3352V18.032ZM71.5282 6.992C70.4402 6.992 69.5762 7.424 68.9362 8.288C68.3282 9.136 68.0242 10.232 68.0242 11.576C68.0242 12.92 68.3282 14.016 68.9362 14.864C69.5762 15.728 70.4402 16.16 71.5282 16.16C72.6162 16.16 73.4722 15.728 74.0962 14.864C74.7202 14.032 75.0322 12.936 75.0322 11.576C75.0322 10.232 74.7202 9.136 74.0962 8.288C73.4722 7.424 72.6162 6.992 71.5282 6.992ZM71.5282 4.736C73.5122 4.736 75.0562 5.448 76.1602 6.872C77.1522 8.136 77.6482 9.704 77.6482 11.576C77.6482 13.448 77.1522 15.016 76.1602 16.28C75.0562 17.704 73.5122 18.416 71.5282 18.416C69.5282 18.416 67.9762 17.704 66.8722 16.28C65.8962 15.048 65.4082 13.48 65.4082 11.576C65.4082 9.672 65.8962 8.104 66.8722 6.872C67.9762 5.448 69.5282 4.736 71.5282 4.736ZM91.1948 18.128H88.6988V10.088C88.6988 8.024 87.9468 6.992 86.4428 6.992C85.4188 6.992 84.6428 7.4 84.1148 8.216C83.6828 8.92 83.4668 9.824 83.4668 10.928V18.128H80.9708V8.36C80.9708 7.736 80.9548 7.152 80.9228 6.608C80.9068 6.048 80.8828 5.52 80.8508 5.024H83.2508V6.344C84.0348 5.272 85.1948 4.736 86.7308 4.736C89.7068 4.736 91.1948 6.392 91.1948 9.704V18.128Z" fill="white"/>
</svg>
