<svg width="184" height="62" viewBox="0 0 184 62" fill="none" xmlns="http://www.w3.org/2000/svg">
<path d="M18.0546 56.6877L21.8651 43.9693H23.0262L18.2798 60.4579H16.8393L13.0273 47.8237L12.5278 46.1682L12.0667 47.8348L8.57438 60.4579H7.09656L2.16335 43.9693H3.82266L7.52825 56.6423L8.01996 58.3239L8.48984 56.636L12.0162 43.9693H13.2609L17.097 56.6885L17.5773 58.281L18.0546 56.6877Z" fill="white" stroke="white"/>
<path fill-rule="evenodd" clip-rule="evenodd" d="M23.6904 43.4693L18.6562 60.9579H16.4678L12.5486 47.9682L8.95483 60.9579H6.72426L1.49185 43.4693H4.1974L8.00816 56.5019L11.6363 43.4693H13.6324L17.5757 56.5442L21.493 43.4693H23.6904Z" fill="white" stroke="white"/>
<path d="M27.3202 58.5925L27.3203 58.5925C28.694 60.1586 30.4828 60.9445 32.7349 60.9445C34.4483 60.9445 35.9149 60.4828 37.1591 59.5709C38.2527 58.7693 39.0247 57.7919 39.4882 56.6355L37.9163 56.3131C37.4517 57.3401 36.8358 58.1539 36.0546 58.7265C35.1736 59.372 34.1189 59.6841 32.9168 59.6841C31.5493 59.6841 30.2695 59.1683 29.0901 58.1824L29.0901 58.1824C27.8049 57.1079 27.2527 55.1244 27.2527 52.4462V51.9462H27.7527H39.9344C39.8331 49.1215 39.1431 47.0593 37.9354 45.6843C36.6506 44.222 34.9576 43.484 32.8051 43.484C30.6295 43.484 28.8409 44.2823 27.4038 45.8913L27.3202 58.5925ZM27.3202 58.5925C25.942 57.0217 25.232 54.9432 25.232 52.3098M27.3202 58.5925L25.232 52.3098M37.9804 50.919H37.4683H27.8794H27.3428L27.3806 50.3838C27.5027 48.6544 28.0634 47.2318 29.1009 46.1605L37.9804 50.919ZM37.9804 50.919L37.9682 50.4071M37.9804 50.919L37.9682 50.4071M37.9682 50.4071C37.9437 49.3799 37.7752 48.4489 37.4496 47.6227L37.9682 50.4071ZM35.764 45.4586L35.7643 45.4587C36.5452 46.0457 37.113 46.7672 37.4495 47.6226L35.764 45.4586ZM35.764 45.4586C34.953 44.8497 33.9859 44.5541 32.8896 44.5541M35.764 45.4586L32.8896 44.5541M25.232 52.3098C25.232 49.6201 25.9698 47.4973 27.4037 45.8913L25.232 52.3098ZM32.8896 44.5541C31.4065 44.5541 30.1334 45.0937 29.101 46.1603L32.8896 44.5541Z" fill="white" stroke="white"/>
<path fill-rule="evenodd" clip-rule="evenodd" d="M37.6158 55.7411L40.1505 56.2609C39.6891 57.7566 38.7906 58.995 37.4547 59.9742C36.1168 60.9546 34.5445 61.4445 32.7349 61.4445C30.3497 61.4445 28.42 60.6044 26.9444 58.9222C25.4695 57.2413 24.732 55.0368 24.732 52.3098C24.732 49.5243 25.4987 47.2742 27.0308 45.5583C28.5635 43.8423 30.4881 42.984 32.8051 42.984C35.0876 42.984 36.9225 43.774 38.311 45.3542C39.6996 46.9351 40.4117 49.2982 40.4461 52.4462H27.7527C27.7527 55.0913 28.305 56.8742 29.4108 57.7988C30.516 58.7228 31.6856 59.1841 32.9168 59.1841C35.1403 59.1841 36.7062 58.036 37.6158 55.7411ZM37.4683 50.419C37.4449 49.4385 37.2844 48.5672 36.9843 47.8057C36.6847 47.0442 36.1779 46.3951 35.4639 45.8584C34.7498 45.3224 33.8915 45.0541 32.8896 45.0541C31.542 45.0541 30.3984 45.5388 29.4602 46.5082C28.5213 47.4776 27.995 48.7803 27.8794 50.419H37.4683Z" fill="white" stroke="white"/>
<path d="M46.2506 54.1194V54.1018V50.174V50.1444L46.2541 50.115C46.4384 48.5659 47.0248 47.2721 48.031 46.2652L48.0313 46.265C49.0279 45.2691 50.1796 44.7438 51.4723 44.7438C53.1059 44.7438 54.396 45.4847 55.3014 46.9077L55.3016 46.908C56.19 48.3062 56.6069 50.1827 56.6069 52.4865C56.6069 54.6384 56.1724 56.3981 55.2446 57.7127C54.3106 59.0371 53.0473 59.727 51.4892 59.727C50.27 59.727 49.1303 59.2674 48.0824 58.395L46.2506 54.1194ZM46.2506 54.1194L46.2518 54.137M46.2506 54.1194L46.2518 54.137M46.2518 54.137C46.384 56.0107 46.9655 57.4656 48.0823 58.3949L46.2518 54.137ZM44.9759 60.4579H44.5255V37.8448H46.2506V46.3847L47.189 46.6252C48.364 44.4832 49.9282 43.484 51.8959 43.484C53.7457 43.484 55.2872 44.2063 56.5493 45.6841L56.5494 45.6843C57.7965 47.1434 58.4587 49.3085 58.4587 52.2571C58.4587 54.7686 57.8177 56.8381 56.5636 58.4987C55.3228 60.1417 53.7364 60.9445 51.7679 60.9445C49.594 60.9445 47.9314 59.932 46.7425 57.8194L46.1908 56.839L45.8328 57.9054L44.9759 60.4579Z" fill="white" stroke="white"/>
<path fill-rule="evenodd" clip-rule="evenodd" d="M45.3354 60.9579H44.0255V37.3448H46.7506V46.3847C47.9942 44.1178 49.7089 42.984 51.8959 42.984C53.8984 42.984 55.5767 43.7753 56.9295 45.3594C58.2823 46.9422 58.9587 49.2417 58.9587 52.2571C58.9587 54.8574 58.2933 57.038 56.9626 58.8001C55.6313 60.5628 53.8997 61.4445 51.7679 61.4445C49.3944 61.4445 47.5745 60.3172 46.3068 58.0646L45.3354 60.9579ZM46.7506 54.1018C46.8773 55.8977 47.4276 57.1998 48.4022 58.0106C49.3762 58.8215 50.406 59.227 51.4892 59.227C52.8731 59.227 53.9888 58.6259 54.836 57.4246C55.6839 56.2232 56.1069 54.5774 56.1069 52.4865C56.1069 50.2351 55.6982 48.4646 54.8796 47.1761C54.0602 45.8883 52.9245 45.2438 51.4723 45.2438C50.3307 45.2438 49.3015 45.7025 48.3847 46.6186C47.4679 47.5361 46.9234 48.7212 46.7506 50.174V54.1018Z" fill="white" stroke="white"/>
<path d="M68.6902 44.8462L68.6903 44.8461C69.7407 43.9558 71.183 43.484 73.0718 43.484C74.9078 43.484 76.3397 43.8433 77.406 44.5187C78.3271 45.102 79.0076 45.9411 79.441 47.0615L77.8973 47.3935C77.5072 46.5859 76.9526 45.9477 76.2279 45.4997C75.3946 44.9845 74.3739 44.7438 73.1953 44.7438C72.0218 44.7438 71.013 44.9848 70.2016 45.5034L70.2012 45.5036C69.3552 46.0454 68.9079 46.8353 68.9079 47.8285C68.9079 48.6042 69.1885 49.2666 69.7543 49.7721C70.3023 50.2616 71.082 50.5726 72.0344 50.7483L72.0347 50.7483L75.4393 51.3747L75.4406 51.3749C77.168 51.6882 78.3978 52.2531 79.192 53.0234C79.9728 53.7808 80.3766 54.7792 80.3766 56.0679C80.3766 57.5114 79.7922 58.6629 78.5873 59.5594L78.5868 59.5597C77.3711 60.4664 75.7208 60.9445 73.5877 60.9445C71.58 60.9445 70.008 60.5387 68.8323 59.7709C67.7965 59.0945 67.0331 58.1145 66.5517 56.8022L68.1567 56.4706C68.515 57.4667 69.144 58.2475 70.0433 58.7888C71.0605 59.4011 72.3844 59.6841 73.973 59.6841C75.179 59.6841 76.2371 59.4138 77.1187 58.8446C78.0445 58.2479 78.5255 57.3768 78.5255 56.283C78.5255 55.4594 78.2171 54.7602 77.6041 54.2271C77.0104 53.7108 76.163 53.3772 75.1196 53.1847C75.1191 53.1846 75.1187 53.1846 75.1182 53.1845L71.4383 52.4841C71.4381 52.484 71.438 52.484 71.4378 52.484C70.0654 52.2206 69.0126 51.7124 68.2436 50.9844C67.5035 50.2832 67.1198 49.3538 67.1198 48.1436C67.1198 46.8322 67.632 45.7427 68.6902 44.8462Z" fill="white" stroke="white"/>
<path fill-rule="evenodd" clip-rule="evenodd" d="M65.9019 56.4259L68.4995 55.8892C69.0772 58.086 70.9017 59.1841 73.973 59.1841C75.1036 59.1841 76.0626 58.9313 76.8475 58.4245C77.633 57.9184 78.0255 57.2043 78.0255 56.283C78.0255 54.914 77.0262 54.0446 75.0275 53.6762L71.3441 52.9751C69.901 52.6983 68.7536 52.1558 67.8998 51.3475C67.0467 50.5392 66.6198 49.4717 66.6198 48.1436C66.6198 46.6784 67.202 45.4517 68.367 44.4647C69.5313 43.4778 71.0998 42.984 73.0718 42.984C76.8657 42.984 79.208 44.4673 80.0956 47.4321L77.6031 47.9682C76.8878 46.1521 75.4193 45.2438 73.1953 45.2438C72.0881 45.2438 71.1804 45.4712 70.4709 45.9247C69.7626 46.3782 69.4079 47.0124 69.4079 47.8285C69.4079 49.1137 70.3143 49.9226 72.1251 50.2566L75.5298 50.8829C79.0949 51.5294 80.8766 53.259 80.8766 56.0679C80.8766 57.6747 80.2132 58.9729 78.8857 59.9605C77.5589 60.9501 75.7929 61.4445 73.5877 61.4445C69.4449 61.4445 66.8823 59.7708 65.9019 56.4259Z" fill="white" stroke="white"/>
<path d="M97.2386 56.6355C96.776 57.7917 96.0035 58.7691 94.9087 59.5708L94.9083 59.5711C93.6662 60.4827 92.1986 60.9445 90.4857 60.9445C88.2328 60.9445 86.4434 60.1585 85.0711 58.5927L85.0709 58.5924C83.6921 57.0217 82.9827 54.9433 82.9827 52.3098C82.9827 49.6199 83.7194 47.4973 85.1555 45.8916L85.1558 45.8913C86.5923 44.2824 88.3808 43.484 90.5565 43.484C92.707 43.484 94.4013 44.222 95.6862 45.6843L95.6862 45.6843C96.8944 47.0592 97.5839 49.1213 97.6846 51.9462H85.5027H85.0027V52.4462C85.0027 55.1247 85.5564 57.1078 86.84 58.1822L86.8404 58.1826C88.0209 59.1683 89.2993 59.6841 90.6682 59.6841C91.8696 59.6841 92.9243 59.372 93.8051 58.7265C94.5863 58.154 95.2024 57.3402 95.6671 56.3131L97.2386 56.6355ZM95.2184 50.919H95.7301L95.7183 50.4074C95.6944 49.3793 95.5244 48.4485 95.2004 47.623L95.2001 47.6224C94.8631 46.7674 94.2962 46.0459 93.515 45.4587L93.5149 45.4587C92.7043 44.8496 91.7359 44.5541 90.6403 44.5541C89.1571 44.5541 87.8841 45.0938 86.8511 46.1603L86.851 46.1605C85.8144 47.2316 85.2521 48.6541 85.1307 50.384L85.0931 50.919H85.6294H95.2184Z" fill="white" stroke="white"/>
<path fill-rule="evenodd" clip-rule="evenodd" d="M95.3665 55.7411L97.9006 56.2609C97.4405 57.7566 96.5413 58.995 95.2041 59.9742C93.8682 60.9546 92.2946 61.4445 90.4857 61.4445C88.0998 61.4445 86.1694 60.6044 84.6951 58.9222C83.2195 57.2413 82.4827 55.0368 82.4827 52.3098C82.4827 49.5243 83.2481 47.2742 84.7828 45.5583C86.3149 43.8423 88.2395 42.984 90.5565 42.984C92.8371 42.984 94.6733 43.774 96.0618 45.3542C97.4509 46.9351 98.1624 49.2982 98.1962 52.4462H85.5027C85.5027 55.0913 86.0563 56.8742 87.1609 57.7988C88.2674 58.7228 89.4357 59.1841 90.6682 59.1841C92.8904 59.1841 94.4569 58.036 95.3665 55.7411ZM95.2184 50.419C95.1957 49.4385 95.0339 48.5672 94.735 47.8057C94.4348 47.0442 93.9287 46.3951 93.2146 45.8584C92.5012 45.3224 91.6415 45.0541 90.6403 45.0541C89.2927 45.0541 88.1492 45.5388 87.2103 46.5082C86.272 47.4776 85.7444 48.7803 85.6294 50.419H95.2184Z" fill="white" stroke="white"/>
<path d="M103.351 51.6997V60.4579H101.627V43.9693H103.014V47.5465L103.971 47.748C104.807 45.8509 105.605 44.7303 106.325 44.2497L106.325 44.2495C107.102 43.7296 107.875 43.484 108.651 43.484C108.808 43.484 108.998 43.4916 109.223 43.5072V45.1453H109.171C107.531 45.1453 106.152 45.7625 105.067 46.9814C103.984 48.1981 103.424 49.7786 103.351 51.6805L103.351 51.6901V51.6997Z" fill="white" stroke="white"/>
<path fill-rule="evenodd" clip-rule="evenodd" d="M103.851 60.9579H101.127V43.4693H103.514V47.5465C104.355 45.6362 105.2 44.3991 106.047 43.8338C106.894 43.2672 107.762 42.984 108.651 42.984C108.927 42.984 109.285 43.0054 109.723 43.0476V45.6453H109.171C107.673 45.6453 106.43 46.2021 105.44 47.3139C104.45 48.4262 103.92 49.8875 103.851 51.6997V60.9579Z" fill="white" stroke="white"/>
<path d="M119.886 57.8449L124.587 43.9693H125.944L120.251 60.4579H118.137L112.253 43.9693H114.2L118.939 57.846L119.414 59.2371L119.886 57.8449Z" fill="white" stroke="white"/>
<path fill-rule="evenodd" clip-rule="evenodd" d="M126.645 43.4693L120.607 60.9579H117.784L111.544 43.4693H114.558L119.412 57.6845L124.229 43.4693H126.645Z" fill="white" stroke="white"/>
<path d="M129.323 37.8448H131.238V39.8655H129.323V37.8448ZM129.45 43.9693H131.174V60.4579H129.45V43.9693Z" fill="white" stroke="white"/>
<path fill-rule="evenodd" clip-rule="evenodd" d="M128.823 37.3448H131.738V40.3655H128.823V37.3448ZM128.95 43.4693H131.674V60.9579H128.95V43.4693Z" fill="white" stroke="white"/>
<path d="M147.766 55.6688C147.401 57.2774 146.711 58.5229 145.719 59.436L145.718 59.4361C144.633 60.4359 143.275 60.9445 141.611 60.9445C139.343 60.9445 137.667 60.117 136.509 58.4854C135.316 56.805 134.706 54.7379 134.706 52.2571C134.706 49.6859 135.35 47.5881 136.604 45.9293L136.604 45.9291C137.837 44.2972 139.5 43.484 141.645 43.484C143.442 43.484 144.832 44.0173 145.869 45.0476L145.869 45.0479C146.832 46.0019 147.471 47.2151 147.779 48.708L146.309 48.9883C146.045 47.7246 145.579 46.7065 144.876 45.9793C144.069 45.1443 143.001 44.7438 141.725 44.7438C140.054 44.7438 138.743 45.4693 137.846 46.8872C136.974 48.2652 136.558 50.0182 136.558 52.1103C136.558 54.3981 136.966 56.2436 137.84 57.5964L137.84 57.5966C138.731 58.9753 140.014 59.6841 141.64 59.6841C142.881 59.6841 143.932 59.2781 144.748 58.4466C145.465 57.7163 145.969 56.6897 146.29 55.4084L147.766 55.6688Z" fill="white" stroke="white"/>
<path fill-rule="evenodd" clip-rule="evenodd" d="M145.908 54.8334L148.358 55.2655C148.012 57.1978 147.245 58.7111 146.057 59.8039C144.869 60.8975 143.387 61.4445 141.611 61.4445C139.201 61.4445 137.364 60.5537 136.101 58.7747C134.839 56.9957 134.206 54.823 134.206 52.2571C134.206 49.5997 134.873 47.3899 136.205 45.6278C137.536 43.865 139.35 42.984 141.645 42.984C143.549 42.984 145.074 43.5531 146.222 44.6928C147.37 45.8312 148.081 47.3028 148.358 49.1065L145.908 49.5737C145.447 46.6882 144.053 45.2438 141.725 45.2438C140.227 45.2438 139.074 45.8805 138.269 47.1547C137.462 48.4295 137.058 50.0811 137.058 52.1103C137.058 54.348 137.458 56.0848 138.26 57.3252C139.061 58.5642 140.187 59.1841 141.64 59.1841C143.885 59.1841 145.309 57.7338 145.908 54.8334Z" fill="white" stroke="white"/>
<path d="M165.595 56.6355C165.132 57.7918 164.36 58.7692 163.265 59.5708L163.265 59.5711C162.023 60.4827 160.555 60.9445 158.842 60.9445C156.589 60.9445 154.8 60.1585 153.427 58.5926L153.427 58.5925C152.049 57.0217 151.339 54.9432 151.339 52.3098C151.339 49.62 152.076 47.4974 153.511 45.8915L153.512 45.8913C154.948 44.2824 156.737 43.484 158.913 43.484C161.064 43.484 162.758 44.222 164.043 45.6843L164.043 45.6843C165.251 47.0592 165.94 49.1213 166.041 51.9462H153.859H153.359V52.4462C153.359 55.1245 153.912 57.1079 155.197 58.1823L155.197 58.1826C156.377 59.1683 157.655 59.6841 159.025 59.6841C160.226 59.6841 161.28 59.372 162.161 58.7265C162.942 58.154 163.559 57.3402 164.024 56.3131L165.595 56.6355ZM163.575 50.919H164.087L164.075 50.4074C164.051 49.3793 163.881 48.4483 163.556 47.6227C163.22 46.7675 162.653 46.0459 161.872 45.4587L161.871 45.4586C161.06 44.8497 160.092 44.5541 158.996 44.5541C157.512 44.5541 156.24 45.0938 155.208 46.1605C154.17 47.2316 153.608 48.6542 153.487 50.3842L153.45 50.919H153.986H163.575Z" fill="white" stroke="white"/>
<path fill-rule="evenodd" clip-rule="evenodd" d="M163.723 55.7411L166.257 56.2609C165.796 57.7566 164.898 58.995 163.561 59.9742C162.225 60.9546 160.651 61.4445 158.842 61.4445C156.456 61.4445 154.526 60.6044 153.051 58.9222C151.576 57.2413 150.839 55.0368 150.839 52.3098C150.839 49.5243 151.605 47.2742 153.139 45.5583C154.671 43.8423 156.596 42.984 158.913 42.984C161.194 42.984 163.03 43.774 164.418 45.3542C165.807 46.9351 166.519 49.2982 166.553 52.4462H153.859C153.859 55.0913 154.412 56.8742 155.517 57.7988C156.624 58.7228 157.792 59.1841 159.025 59.1841C161.246 59.1841 162.813 58.036 163.723 55.7411ZM163.575 50.419C163.552 49.4385 163.39 48.5672 163.091 47.8057C162.791 47.0442 162.285 46.3951 161.571 45.8584C160.857 45.3224 159.998 45.0541 158.996 45.0541C157.648 45.0541 156.505 45.5388 155.567 46.5082C154.628 47.4776 154.1 48.7803 153.986 50.419H163.575Z" fill="white" stroke="white"/>
<path d="M170.88 44.8463L170.881 44.8461C171.93 43.9558 173.372 43.484 175.263 43.484C177.098 43.484 178.53 43.8433 179.596 44.5186C180.517 45.102 181.197 45.9411 181.63 47.0615L180.087 47.3934C179.697 46.5858 179.143 45.9476 178.418 45.4996C177.584 44.9845 176.563 44.7438 175.385 44.7438C174.212 44.7438 173.203 44.9848 172.392 45.5035C171.545 46.0453 171.098 46.8352 171.098 47.8285C171.098 48.6041 171.378 49.2666 171.944 49.7721C172.492 50.2617 173.272 50.5726 174.225 50.7483L174.225 50.7483L177.63 51.3747L177.631 51.3749C179.358 51.6881 180.588 52.2531 181.382 53.0234C182.163 53.7808 182.567 54.7793 182.567 56.0679C182.567 57.5115 181.983 58.6629 180.777 59.5593L180.777 59.5597C179.561 60.4664 177.91 60.9445 175.778 60.9445C173.77 60.9445 172.198 60.5387 171.022 59.7709C169.986 59.0945 169.223 58.1145 168.741 56.8022L170.347 56.4706C170.705 57.4667 171.334 58.2475 172.233 58.7888C173.25 59.4011 174.574 59.6841 176.162 59.6841C177.37 59.6841 178.427 59.4138 179.308 58.8446C180.234 58.248 180.716 57.3771 180.716 56.283C180.716 55.4593 180.407 54.7601 179.794 54.227C179.2 53.7107 178.353 53.3772 177.309 53.1847C177.309 53.1847 177.308 53.1846 177.308 53.1845L173.628 52.4841C173.628 52.484 173.628 52.484 173.627 52.484C172.256 52.2207 171.203 51.7125 170.434 50.9844C169.694 50.2832 169.31 49.3538 169.31 48.1436C169.31 46.8321 169.822 45.7426 170.88 44.8463Z" fill="white" stroke="white"/>
<path fill-rule="evenodd" clip-rule="evenodd" d="M168.091 56.4259L170.69 55.8892C171.267 58.086 173.092 59.1841 176.162 59.1841C177.294 59.1841 178.252 58.9313 179.037 58.4245C179.822 57.9184 180.216 57.2043 180.216 56.283C180.216 54.914 179.216 54.0446 177.217 53.6762L173.534 52.9751C172.091 52.6983 170.944 52.1558 170.09 51.3475C169.237 50.5392 168.81 49.4717 168.81 48.1436C168.81 46.6784 169.391 45.4517 170.557 44.4647C171.721 43.4778 173.289 42.984 175.263 42.984C179.056 42.984 181.397 44.4673 182.285 47.4321L179.793 47.9682C179.079 46.1521 177.609 45.2438 175.385 45.2438C174.278 45.2438 173.371 45.4712 172.662 45.9247C171.953 46.3782 171.598 47.0124 171.598 47.8285C171.598 49.1137 172.504 49.9226 174.316 50.2566L177.721 50.8829C181.284 51.5294 183.067 53.259 183.067 56.0679C183.067 57.6747 182.404 58.9729 181.076 59.9605C179.749 60.9501 177.982 61.4445 175.778 61.4445C171.635 61.4445 169.072 59.7708 168.091 56.4259Z" fill="white" stroke="white"/>
<path d="M127.658 5.48906C127.653 6.09332 127.144 6.88211 126.24 8.13353M127.658 5.48906L127.659 1.88622M127.658 5.48906L127.158 5.4853L127.159 1.88726L127.659 1.88622M127.658 5.48906L127.158 5.48888V5.48674C127.156 5.6593 127.079 5.91626 126.85 6.32394C126.625 6.72512 126.288 7.21405 125.835 7.84064L125.835 7.84061L125.83 7.8467L116.078 21.7714L115.511 22.5813L116.5 22.5581C120.069 22.4742 123.798 23.0106 126.982 24.8L126.982 24.8002C127.519 25.1016 127.673 25.5233 127.726 26.029M126.24 8.13353L106.68 1.89141M126.24 8.13353L116.842 21.5519M126.24 8.13353L116.842 21.5519M127.659 1.88622C127.658 1.26311 127.175 0.82518 126.573 0.82518M127.659 1.88622L127.159 1.88603V1.88648C127.158 1.55986 126.92 1.3252 126.573 1.32518M126.573 0.82518L107.744 0.827129C107.164 0.82583 106.683 1.25206 106.68 1.89141M126.573 0.82518L126.573 1.32518M126.573 0.82518V1.32518H126.573M106.68 1.89141L107.18 1.89345C107.18 1.89315 107.18 1.89285 107.18 1.89255V1.89141H106.68ZM126.573 1.32518L107.18 6.09028M127.726 26.029V30.4861C127.726 30.6289 127.637 30.8248 127.484 30.9497C127.35 31.0583 127.217 31.0801 127.071 31.0041M127.726 26.029V26.0041H128.226M127.726 26.029C127.726 26.0367 127.727 26.0445 127.728 26.0522L128.226 26.0041M127.071 31.0041C121.139 27.8968 113.274 27.555 106.711 31.0419L106.711 31.0422C106.607 31.0971 106.49 31.0909 106.349 30.9744C106.194 30.8461 106.106 30.6502 106.106 30.5101V26.2491C106.106 25.5686 106.126 24.544 106.72 23.6425M127.071 31.0041C127.071 31.0041 127.072 31.0041 127.072 31.0041L126.84 31.4471M127.071 31.0041L126.84 31.4471M106.72 23.6425L118.016 7.43768L118.563 6.65195L117.606 6.65176L107.768 6.64981H107.768C107.418 6.64981 107.183 6.4212 107.18 6.09028M106.72 23.6425L106.717 23.6475L106.306 23.3616M106.72 23.6425C106.721 23.6408 106.722 23.6392 106.723 23.6376L106.306 23.3616M107.18 6.09028V6.09203H106.68L107.18 6.08893C107.18 6.08938 107.18 6.08983 107.18 6.09028ZM106.306 23.3616C105.618 24.4012 105.606 25.5675 105.606 26.2491V30.5101C105.606 31.128 106.291 31.8324 106.946 31.4835M106.306 23.3616L117.257 7.65169L117.605 7.65176L117.605 7.15176L117.195 6.86584L116.996 7.15164L107.768 7.14981L106.946 31.4835M106.946 31.4835C113.353 28.0788 121.044 28.4115 126.84 31.4471M106.946 31.4835L116.842 21.5519M116.842 21.5519C116.72 21.5533 116.598 21.5555 116.476 21.5584L116.488 22.0582L116.897 22.3451L117.104 22.0499C120.54 22.0386 124.123 22.6196 127.227 24.3642C127.969 24.7807 128.167 25.3986 128.226 26.0041M128.226 26.0041V30.4861C128.226 31.104 127.55 31.8187 126.84 31.4471" fill="white" stroke="white"/>
<path d="M70.6132 11.2959C70.6052 11.7704 70.5972 12.2456 70.5972 12.7193C70.5972 12.7194 70.5972 12.7194 70.5972 12.7194L70.5927 31.2715V31.2716C70.5927 31.5622 70.3433 31.8301 69.9881 31.8301H64.2854C63.9603 31.8025 63.7385 31.5498 63.7385 31.2742V31.2742L63.7372 15.6888C63.7372 15.6888 63.7372 15.6887 63.7372 15.6887C63.7372 15.4678 63.7411 15.1685 63.7454 14.8243C63.7527 14.2578 63.7614 13.5697 63.7573 12.9095C63.7506 11.848 63.7123 10.7256 63.5642 10.0744C63.3292 8.98872 62.8425 8.22946 62.1305 7.7558C61.4328 7.29172 60.5844 7.14622 59.7085 7.14622C58.1091 7.14622 56.4835 8.2029 55.8208 9.87515L55.8207 9.87526C55.4961 10.6949 55.3596 11.7508 55.2989 12.7748C55.2469 13.6521 55.2491 14.547 55.2509 15.3031C55.2512 15.4362 55.2515 15.5651 55.2515 15.6888V31.2716C55.2515 31.562 55.0016 31.8301 54.6469 31.8301H48.9436C48.6185 31.8025 48.3967 31.5498 48.3967 31.2742V31.274L48.3909 15.6888C48.3909 15.6887 48.3909 15.6886 48.3909 15.6886C48.3909 15.3748 48.3963 15.0396 48.402 14.6909C48.4248 13.2815 48.4513 11.6489 48.1378 10.2944C47.9391 9.436 47.5929 8.62642 46.9758 8.03016C46.3464 7.42201 45.4859 7.08449 44.3628 7.08449C43.2311 7.08449 42.3464 7.41072 41.678 7.99614C41.0189 8.57346 40.6142 9.36412 40.3609 10.2185C39.8983 11.7788 39.9021 13.7042 39.9053 15.3055C39.9056 15.4355 39.9058 15.5633 39.9058 15.6887C39.9058 15.6887 39.9058 15.6887 39.9058 15.6888L39.9032 31.2716L39.9032 31.2722C39.9035 31.5618 39.6543 31.8301 39.2986 31.8301H33.5891C33.2881 31.8041 33.0755 31.5854 33.0458 31.3373L33.0497 1.96295V1.96289C33.0497 1.67229 33.2992 1.40445 33.655 1.40445H33.6551L38.9749 1.40316C39.2872 1.42417 39.5074 1.65269 39.5316 1.90961V5.72882V6.22882H40.0316H40.1388H40.4855L40.607 5.90414C41.2744 4.12179 42.2228 2.85089 43.3946 2.02308C44.5655 1.19589 45.9971 0.784592 47.6771 0.784592C49.3827 0.784592 50.7297 1.19488 51.8376 2.01634C52.953 2.8434 53.8698 4.11963 54.6513 5.92724L55.1436 7.06606L55.5785 5.90406C56.8859 2.41047 59.8373 0.784592 63.0228 0.784592C65.3051 0.784592 67.7569 1.72382 69.2477 3.79372L69.2505 3.79748C70.0805 4.92753 70.4282 6.33667 70.5586 7.89675C70.6516 9.0092 70.6324 10.151 70.6132 11.2959Z" fill="white" stroke="white"/>
<path d="M141.49 0.784592C145.543 0.784592 148.644 2.53005 150.748 5.39069C152.863 8.26713 153.986 12.2989 153.986 16.8642C153.986 21.2602 152.751 25.1673 150.577 27.9635C148.411 30.7503 145.304 32.4493 141.49 32.4493C137.52 32.4493 134.471 30.7066 132.399 27.8675C130.316 25.0131 129.206 21.0265 129.206 16.5549C129.206 12.0528 130.329 8.09881 132.417 5.28404C134.494 2.48425 137.543 0.784592 141.49 0.784592ZM141.543 6.54195C140.367 6.54195 139.439 6.95094 138.731 7.638C138.035 8.31272 137.575 9.23022 137.266 10.218C136.651 12.1861 136.587 14.5922 136.587 16.3834C136.587 16.4312 136.587 16.4797 136.587 16.5289C136.587 18.3061 136.586 20.9136 137.133 23.1015C137.414 24.2276 137.851 25.2915 138.547 26.0808C139.26 26.888 140.227 27.3865 141.49 27.3865C142.704 27.3865 143.663 27.0085 144.401 26.3528C145.128 25.7065 145.606 24.821 145.924 23.8564C146.556 21.9401 146.605 19.5613 146.605 17.6828C146.605 15.2099 146.503 12.1702 145.734 9.73796C145.392 8.64507 144.864 7.8313 144.132 7.29589C143.401 6.76034 142.519 6.54195 141.543 6.54195Z" fill="white" stroke="white"/>
<path d="M182.975 12.9053V31.3673C182.932 31.6119 182.698 31.8301 182.378 31.8301H176.654C176.364 31.8053 176.156 31.6018 176.115 31.3677V15.4412C176.115 15.2014 176.118 14.9495 176.12 14.6891C176.133 13.2529 176.149 11.5543 175.792 10.1525C175.579 9.31281 175.221 8.5239 174.605 7.94367C173.977 7.35249 173.129 7.02277 172.033 7.02277C170.41 7.02277 168.968 8.10017 168.262 9.6681L168.261 9.66953C167.414 11.5652 167.308 13.4492 167.308 15.4412V31.2665C167.301 31.5641 167.045 31.8301 166.692 31.8301H161.004C160.68 31.8025 160.458 31.5497 160.458 31.2742V31.2741L160.449 1.89038C160.481 1.6364 160.72 1.40445 161.049 1.40445H161.049L166.348 1.40316C166.612 1.42079 166.812 1.589 166.88 1.79331V6.22327V6.72327H167.38H167.488H167.827L167.953 6.40854C168.737 4.44159 169.657 3.04656 170.817 2.13987C171.967 1.24083 173.401 0.784592 175.294 0.784592C177.735 0.784592 180.065 1.65989 181.555 4.01622L181.556 4.0177C182.243 5.09669 182.607 6.58344 182.791 8.19821C182.975 9.80488 182.975 11.4781 182.975 12.9053Z" fill="white" stroke="white"/>
<path d="M98.1197 31.5904C99.3032 30.5449 101.114 28.974 102.18 28.0815L102.185 28.0771L102.185 28.0772C102.288 27.993 102.327 27.8967 102.323 27.7712C102.319 27.6279 102.255 27.4369 102.113 27.2329C102.004 27.0834 101.894 26.9351 101.783 26.7861C100.838 25.5187 99.8572 24.2021 99.8572 21.6346V12.7103C99.8572 12.4107 99.8586 12.115 99.86 11.8234C99.8765 8.35174 99.8903 5.4538 97.4974 3.2177L97.4925 3.2131L97.4925 3.21307C95.4338 1.23658 91.9475 0.5 89.2121 0.5C86.5399 0.5 83.7511 1.0001 81.4898 2.29351C79.2465 3.57665 77.5027 5.64938 76.8937 8.86374L98.1197 31.5904ZM98.1197 31.5904L98.1049 31.5764L97.7613 31.8842C97.5703 32.0552 97.2777 32.0905 97.0177 31.9693C95.4972 30.6998 95.0409 30.022 94.3118 28.939C94.1766 28.7381 94.032 28.5233 93.8695 28.2883L93.5254 27.7905L93.1014 28.2223C91.5507 29.8019 90.2597 30.7934 88.8831 31.3978C87.5101 32.0006 86.0109 32.2362 84.0142 32.2362C81.7044 32.2362 79.6953 31.5247 78.2664 30.1446C76.8413 28.7683 75.9408 26.676 75.9408 23.8087C75.9408 19.3749 78.3245 16.3836 81.7473 14.9055L81.7473 14.9055L81.75 14.9043C83.2428 14.2489 85.053 13.8537 86.9271 13.5769C88.2185 13.3861 89.5142 13.2548 90.7447 13.13C91.3039 13.0733 91.8497 13.0179 92.3756 12.959L92.8199 12.9092V12.4621V11.7182C92.8199 11.585 92.821 11.4465 92.8222 11.3039C92.8268 10.7437 92.8319 10.122 92.7704 9.52073C92.6926 8.7597 92.5046 7.97028 92.0384 7.28553C91.213 6.0398 89.6765 5.57643 88.4084 5.57643C86.054 5.57643 83.8517 6.80204 83.3145 9.41551L83.3145 9.4155L83.3132 9.42217C83.2791 9.60056 83.1962 9.77369 83.0885 9.89635C82.9939 10.0041 82.8994 10.0537 82.8146 10.0664L77.3428 9.47472C77.1935 9.43654 77.0607 9.36173 76.9797 9.26907C76.9097 9.189 76.8544 9.07206 76.8937 8.86399L98.1197 31.5904ZM92.8199 17.0506V16.5506H92.3199C90.231 16.5506 87.9997 16.7708 86.2765 17.6599C85.4056 18.1092 84.654 18.7346 84.1228 19.5948C83.5913 20.4555 83.2997 21.5201 83.2997 22.8165C83.2997 24.1373 83.6422 25.2986 84.3305 26.1398C85.0285 26.9928 86.0455 27.4703 87.2824 27.4703C89.1133 27.4703 90.7072 26.3408 91.6837 24.6128C92.8258 22.5975 92.8231 20.6913 92.8202 18.6098C92.82 18.5038 92.8199 18.3973 92.8199 18.2904V17.0506Z" fill="white" stroke="white"/>
<path d="M18.3791 17.0506V16.5506H17.8791C15.7905 16.5506 13.5594 16.7708 11.8363 17.6599C10.9654 18.1092 10.2139 18.7346 9.6827 19.5948C9.15122 20.4555 8.85963 21.5201 8.85963 22.8165C8.85963 24.1373 9.20188 25.2985 9.89017 26.1398C10.5881 26.9928 11.6051 27.4703 12.8423 27.4703C14.6733 27.4703 16.2665 26.3407 17.243 24.6128C18.3852 22.5984 18.3824 20.6929 18.3794 18.6126C18.3793 18.5057 18.3791 18.3983 18.3791 18.2904V17.0506ZM27.7395 28.0815C26.6743 28.974 24.8626 30.5448 23.6794 31.5904L23.6647 31.5765L23.3211 31.8842C23.1301 32.0553 22.8369 32.0904 22.5777 31.9693C21.055 30.6985 20.5987 30.0205 19.8686 28.9357C19.7341 28.7358 19.5903 28.5221 19.4288 28.2884L19.0847 27.7903L18.6606 28.2223C17.1103 29.8019 15.8193 30.7934 14.4427 31.3978C13.0697 32.0006 11.5705 32.2362 9.57405 32.2362C7.26399 32.2362 5.25469 31.5247 3.82572 30.1446C2.40058 28.7682 1.5 26.676 1.5 23.8087C1.5 19.3749 3.8837 16.3836 7.30711 14.9055L7.30712 14.9055L7.30992 14.9043C8.80269 14.2489 10.6129 13.8537 12.4869 13.5769C13.7781 13.3862 15.0735 13.2548 16.3037 13.13C16.8631 13.0733 17.4089 13.018 17.9348 12.959L18.3791 12.9092V12.4621V11.7182C18.3791 11.5849 18.3802 11.4463 18.3814 11.3037C18.386 10.7435 18.3911 10.1219 18.3297 9.52079C18.252 8.75976 18.0642 7.97035 17.5983 7.28558C16.7723 6.03989 15.2359 5.57643 13.9676 5.57643C11.6139 5.57643 9.41096 6.80201 8.87377 9.41551L8.87373 9.41551L8.87257 9.42157C8.83806 9.60062 8.75516 9.77388 8.64763 9.89643C8.55319 10.0041 8.45868 10.0537 8.37324 10.0664L2.90212 9.47473C2.75308 9.43655 2.62031 9.36174 2.53927 9.26907C2.46924 9.18899 2.41402 9.07215 2.4535 8.86417L2.45354 8.86395C3.06221 5.64946 4.80582 3.57667 7.04911 2.29351C9.3103 1.0001 12.0991 0.5 14.7714 0.5C17.5073 0.5 20.9924 1.23654 23.0525 3.21317L23.0525 3.2132L23.0573 3.21766C25.45 5.45418 25.4363 8.35284 25.4199 11.8253C25.4185 12.1163 25.4171 12.4113 25.4171 12.7103V21.6346C25.4171 24.202 26.3977 25.5185 27.3416 26.7859C27.4527 26.935 27.5632 27.0834 27.6716 27.2331C27.8141 27.4371 27.8778 27.6282 27.8821 27.7715C27.8858 27.8971 27.8474 27.9934 27.7445 28.0774L27.7445 28.0773L27.7395 28.0815Z" fill="white" stroke="white"/>
</svg>
