<svg width="88" height="19" viewBox="0 0 88 19" fill="none" xmlns="http://www.w3.org/2000/svg">
<path d="M0.880094 17.352V14.52C1.52009 14.888 2.14409 15.156 2.75209 15.324C3.36809 15.492 3.93609 15.576 4.45609 15.576C5.14409 15.576 5.64409 15.376 5.95609 14.976C6.26809 14.576 6.42409 13.968 6.42409 13.152V2.424H9.28009V13.152C9.28009 14.408 9.08409 15.416 8.69209 16.176C8.30009 16.936 7.76009 17.488 7.07209 17.832C6.38409 18.168 5.59209 18.336 4.69609 18.336C3.99209 18.336 3.32009 18.24 2.68009 18.048C2.04009 17.864 1.44009 17.632 0.880094 17.352ZM17.7127 18.336C16.7207 18.336 15.8127 18.08 14.9887 17.568C14.1647 17.056 13.5047 16.34 13.0087 15.42C12.5127 14.492 12.2647 13.408 12.2647 12.168C12.2647 10.888 12.5087 9.788 12.9967 8.868C13.4927 7.948 14.1527 7.244 14.9767 6.756C15.8007 6.268 16.7127 6.024 17.7127 6.024C18.6407 6.024 19.4407 6.212 20.1127 6.588C20.7927 6.956 21.3367 7.46 21.7447 8.1C22.1607 8.732 22.4407 9.448 22.5847 10.248C22.7287 11.048 22.7367 11.872 22.6087 12.72H14.5207V11.184H20.6047L20.0527 11.544C20.0767 11.168 20.0567 10.788 19.9927 10.404C19.9367 10.02 19.8247 9.668 19.6567 9.348C19.4887 9.028 19.2487 8.772 18.9367 8.58C18.6327 8.38 18.2407 8.28 17.7607 8.28C17.1847 8.28 16.6967 8.424 16.2967 8.712C15.8967 9 15.5927 9.392 15.3847 9.888C15.1767 10.384 15.0727 10.944 15.0727 11.568V12.696C15.0727 13.352 15.1687 13.932 15.3607 14.436C15.5607 14.94 15.8527 15.336 16.2367 15.624C16.6287 15.912 17.1207 16.056 17.7127 16.056C18.2647 16.056 18.7287 15.928 19.1047 15.672C19.4807 15.416 19.7207 15.032 19.8247 14.52H22.6807C22.5607 15.272 22.2767 15.936 21.8287 16.512C21.3887 17.08 20.8167 17.528 20.1127 17.856C19.4087 18.176 18.6087 18.336 17.7127 18.336ZM34.0873 18V11.184C34.0873 10.32 33.8793 9.668 33.4633 9.228C33.0473 8.788 32.5033 8.568 31.8313 8.568C31.2633 8.568 30.7593 8.724 30.3193 9.036C29.8873 9.348 29.5473 9.82 29.2993 10.452C29.0513 11.076 28.9273 11.856 28.9273 12.792H27.9913C27.9913 11.28 28.1793 10.024 28.5553 9.024C28.9313 8.016 29.4633 7.264 30.1513 6.768C30.8393 6.272 31.6473 6.024 32.5753 6.024C33.5353 6.024 34.3353 6.24 34.9753 6.672C35.6233 7.096 36.1073 7.696 36.4273 8.472C36.7553 9.248 36.9193 10.152 36.9193 11.184V18H34.0873ZM26.0953 18V6.36H28.5673L28.9273 8.664V18H26.0953ZM41.0484 18V1.536H43.8804V18H41.0484ZM43.4964 10.776L48.4884 6.36H52.3284L43.4964 13.704V10.776ZM49.1604 18L43.9524 10.584L46.6404 9.936L52.6164 18H49.1604ZM56.9075 4.224C56.3555 4.224 55.9235 4.08 55.6115 3.792C55.3075 3.496 55.1555 3.088 55.1555 2.568C55.1555 2.064 55.3075 1.664 55.6115 1.368C55.9235 1.064 56.3555 0.912 56.9075 0.912C57.4515 0.912 57.8795 1.064 58.1915 1.368C58.5035 1.664 58.6595 2.064 58.6595 2.568C58.6595 3.088 58.5035 3.496 58.1915 3.792C57.8795 4.08 57.4515 4.224 56.9075 4.224ZM55.4915 18V6.312H58.3235V18H55.4915ZM71.1185 18V11.184C71.1185 10.32 70.9105 9.668 70.4945 9.228C70.0785 8.788 69.5345 8.568 68.8625 8.568C68.2945 8.568 67.7905 8.724 67.3505 9.036C66.9185 9.348 66.5785 9.82 66.3305 10.452C66.0825 11.076 65.9585 11.856 65.9585 12.792H65.0225C65.0225 11.28 65.2105 10.024 65.5865 9.024C65.9625 8.016 66.4945 7.264 67.1825 6.768C67.8705 6.272 68.6785 6.024 69.6065 6.024C70.5665 6.024 71.3665 6.24 72.0065 6.672C72.6545 7.096 73.1385 7.696 73.4585 8.472C73.7865 9.248 73.9505 10.152 73.9505 11.184V18H71.1185ZM63.1265 18V6.36H65.5985L65.9585 8.664V18H63.1265ZM82.4237 18.336C81.3037 18.336 80.3397 18.184 79.5317 17.88C78.7317 17.568 78.1157 17.124 77.6837 16.548C77.2517 15.964 77.0317 15.264 77.0237 14.448H79.6397C79.6637 15.024 79.8917 15.444 80.3237 15.708C80.7557 15.972 81.3437 16.104 82.0877 16.104C82.4957 16.104 82.8557 16.044 83.1677 15.924C83.4877 15.804 83.7357 15.64 83.9117 15.432C84.0877 15.224 84.1757 14.992 84.1757 14.736C84.1757 14.408 84.0557 14.152 83.8157 13.968C83.5837 13.776 83.2077 13.6 82.6877 13.44L80.1437 12.528C79.2317 12.2 78.5317 11.768 78.0437 11.232C77.5557 10.696 77.3117 10.056 77.3117 9.312C77.3117 8.328 77.7557 7.536 78.6437 6.936C79.5397 6.328 80.7357 6.024 82.2317 6.024C83.7197 6.024 84.8677 6.352 85.6757 7.008C86.4917 7.656 86.9117 8.48 86.9357 9.48H84.2717C84.2317 9.096 84.0477 8.792 83.7197 8.568C83.3917 8.344 82.8957 8.232 82.2317 8.232C81.6317 8.232 81.1597 8.356 80.8157 8.604C80.4797 8.844 80.3117 9.128 80.3117 9.456C80.3117 10.008 80.7837 10.424 81.7277 10.704L84.4877 11.736C85.3837 12.04 86.0797 12.432 86.5757 12.912C87.0717 13.392 87.3197 14 87.3197 14.736C87.3197 15.352 87.1117 15.936 86.6957 16.488C86.2877 17.032 85.7157 17.476 84.9797 17.82C84.2437 18.164 83.3917 18.336 82.4237 18.336Z" fill="white"/>
</svg>
