<svg width="303" height="46" viewBox="0 0 303 46" fill="none" xmlns="http://www.w3.org/2000/svg">
<path d="M9.312 25.615C10.135 24.689 10.958 23.763 11.884 22.837C12.7442 21.8795 13.6015 20.9195 14.456 19.957C15.279 18.927 16.102 18.001 16.823 17.177C17.544 16.353 18.263 15.532 18.777 14.915H28.757C26.802 17.178 24.847 19.442 22.893 21.499C21.041 23.557 18.9833 25.7177 16.72 27.981C17.9607 29.143 19.1288 30.3799 20.218 31.685C21.452 33.125 22.584 34.565 23.716 36.005C24.8379 37.4486 25.8686 38.9609 26.802 40.533C27.728 42.076 28.552 43.413 29.169 44.648H19.498C18.88 43.618 18.16 42.59 17.44 41.458C16.6873 40.211 15.8626 39.0089 14.97 37.858C14.1338 36.6237 13.2055 35.4544 12.193 34.36C11.3731 33.3337 10.4413 32.4019 9.41499 31.582V44.545H0.978989V2.05499L9.41499 0.716995V25.615" fill="white"/>
<path d="M58.49 43.619C56.6674 44.1271 54.8111 44.5054 52.935 44.751C50.5885 45.1342 48.2123 45.3062 45.835 45.265C43.6621 45.3439 41.495 44.9946 39.457 44.237C37.923 43.6574 36.5662 42.6887 35.52 41.4259C34.4739 40.1632 33.7742 38.65 33.49 37.035C33.07 35.2131 32.8626 33.3487 32.872 31.479V14.915H41.309V30.45C41.309 33.125 41.618 35.08 42.338 36.315C43.058 37.55 44.395 38.167 46.35 38.167C47.0033 38.1814 47.6568 38.147 48.305 38.064C49.025 37.961 49.54 37.961 50.157 37.858V14.915H58.593L58.49 43.619Z" fill="white"/>
<path d="M85.549 29.524C85.549 24.072 83.594 21.397 79.581 21.397C78.7145 21.3979 77.8512 21.5013 77.009 21.705C76.2875 21.8797 75.5949 22.1569 74.952 22.528V37.858C75.363 37.961 75.878 37.961 76.495 38.064C77.112 38.064 77.832 38.167 78.553 38.167C79.552 38.212 80.5476 38.0212 81.4591 37.61C82.3707 37.1987 83.1726 36.5787 83.8 35.8C85.0305 33.9449 85.6427 31.7481 85.549 29.524ZM94.088 29.73C94.1313 31.9345 93.7829 34.1293 93.059 36.212C92.4397 38.0572 91.4211 39.7432 90.076 41.15C88.674 42.5019 87.0346 43.5833 85.24 44.34C83.1236 45.0715 80.8937 45.4196 78.655 45.368C77.627 45.368 76.598 45.265 75.466 45.163C74.334 45.061 73.306 44.957 72.174 44.853C71.145 44.751 70.116 44.545 69.087 44.339C68.2072 44.1879 67.3453 43.9466 66.515 43.619V2.05399L74.952 0.716995V15.532C75.9097 15.1159 76.91 14.8054 77.935 14.606C79.0201 14.3967 80.1229 14.2936 81.228 14.298C83.1401 14.2626 85.0366 14.6484 86.783 15.428C88.3771 16.1221 89.7867 17.1796 90.899 18.516C92.0824 19.9557 92.9263 21.6435 93.368 23.454C93.8341 25.5138 94.0755 27.6181 94.088 29.73Z" fill="white"/>
<path d="M99.13 30.039C99.0743 27.6818 99.494 25.3375 100.364 23.146C101.108 21.3136 102.19 19.6377 103.554 18.206C104.815 16.8796 106.364 15.8595 108.08 15.224C109.777 14.5272 111.596 14.177 113.43 14.194C115.275 14.1095 117.116 14.414 118.836 15.0876C120.555 15.7612 122.114 16.7889 123.41 18.104C125.879 20.676 127.113 24.484 127.113 29.421C127.127 29.9719 127.093 30.523 127.011 31.068C127.011 31.582 126.908 32.096 126.908 32.611H107.77C107.854 33.4363 108.119 34.2331 108.545 34.9443C108.972 35.6556 109.551 36.264 110.24 36.726C111.953 37.827 113.967 38.3663 116.001 38.269C117.52 38.2901 119.037 38.1523 120.528 37.858C121.795 37.6445 123.037 37.2993 124.232 36.828L125.363 43.722C124.952 43.928 124.335 44.134 123.512 44.442C122.68 44.7219 121.815 44.8949 120.939 44.957C119.955 45.158 118.958 45.295 117.956 45.367C116.927 45.471 115.796 45.574 114.766 45.574C112.375 45.6291 109.998 45.2097 107.77 44.34C105.931 43.6093 104.254 42.5256 102.832 41.15C101.561 39.706 100.583 38.029 99.952 36.212C99.4122 34.1985 99.1353 32.1236 99.128 30.039M118.985 26.747C118.957 26.0435 118.818 25.3489 118.573 24.689C118.369 24.0245 118.056 23.3986 117.647 22.837C117.159 22.2221 116.531 21.733 115.815 21.4108C115.099 21.0886 114.316 20.9426 113.532 20.985C112.682 20.9857 111.842 21.1606 111.062 21.499C110.417 21.7639 109.851 22.189 109.417 22.734C108.955 23.2772 108.605 23.9066 108.387 24.586C108.167 25.259 107.996 25.9468 107.873 26.644H118.985" fill="white"/>
<path d="M151.497 22.323C150.622 22.0729 149.727 21.9006 148.822 21.808C147.737 21.5981 146.635 21.4943 145.53 21.498C144.875 21.5316 144.222 21.6007 143.575 21.705C143.021 21.7795 142.472 21.8826 141.929 22.014V44.75H133.492V16.458C135.243 15.8655 137.03 15.3845 138.842 15.018C141.103 14.5028 143.417 14.261 145.735 14.298C146.286 14.2867 146.836 14.3208 147.381 14.4C148.037 14.423 148.69 14.4918 149.336 14.606C149.954 14.709 150.571 14.812 151.291 14.915C151.908 15.018 152.526 15.224 152.937 15.325L151.497 22.323Z" fill="white"/>
<path d="M157.464 15.944C161.594 14.8543 165.847 14.3011 170.119 14.298C172.259 14.2087 174.395 14.5586 176.395 15.326C177.967 15.8559 179.358 16.8188 180.407 18.104C181.376 19.3915 182.075 20.8606 182.465 22.424C182.896 24.2443 183.104 26.1104 183.082 27.981V44.751H174.645V29.01C174.645 26.335 174.337 24.38 173.617 23.248C172.897 22.116 171.559 21.602 169.604 21.602C168.951 21.5876 168.297 21.622 167.649 21.705C167.027 21.717 166.407 21.786 165.798 21.911V44.854H157.464V15.944Z" fill="white"/>
<path d="M189.358 30.039C189.302 27.6818 189.722 25.3375 190.592 23.146C191.336 21.3136 192.418 19.6377 193.782 18.206C195.044 16.8794 196.592 15.8594 198.309 15.224C200.006 14.5272 201.825 14.177 203.659 14.194C205.504 14.1095 207.345 14.414 209.065 15.0876C210.784 15.7612 212.343 16.7889 213.639 18.104C216.107 20.676 217.342 24.484 217.342 29.421C217.356 29.9719 217.321 30.5231 217.239 31.068C217.239 31.582 217.136 32.096 217.136 32.611H198C198.084 33.4363 198.348 34.2331 198.775 34.9443C199.202 35.6556 199.781 36.264 200.47 36.726C202.183 37.8268 204.196 38.3662 206.23 38.269C207.75 38.2902 209.267 38.1524 210.758 37.858C212.025 37.6445 213.266 37.2993 214.461 36.828L215.593 43.722C215.182 43.928 214.564 44.134 213.741 44.442C212.909 44.7218 212.045 44.8949 211.169 44.957C210.184 45.1581 209.187 45.295 208.185 45.367C207.157 45.471 206.025 45.574 204.996 45.574C202.605 45.6291 200.227 45.2097 198 44.34C196.161 43.6093 194.484 42.5256 193.062 41.15C191.791 39.7061 190.812 38.0291 190.181 36.212C189.641 34.1985 189.365 32.1235 189.358 30.039ZM209.214 26.747C209.187 26.0436 209.048 25.3489 208.803 24.689C208.599 24.0245 208.286 23.3986 207.877 22.837C207.389 22.2219 206.76 21.7328 206.044 21.4106C205.328 21.0884 204.545 20.9424 203.761 20.985C202.912 20.9858 202.071 21.1608 201.292 21.499C200.647 21.7637 200.08 22.1888 199.646 22.734C199.184 23.2773 198.834 23.9067 198.617 24.586C198.397 25.259 198.226 25.9467 198.103 26.644H209.214" fill="white"/>
<path d="M223.618 7.507L232.054 6.17V14.915H242.137V21.91H232.054V32.404C231.984 33.8672 232.303 35.3228 232.98 36.622C233.598 37.652 234.935 38.166 236.787 38.166C237.716 38.1485 238.643 38.0798 239.565 37.96C240.475 37.7944 241.37 37.5536 242.24 37.24L243.474 43.824C242.383 44.2889 241.245 44.6339 240.079 44.853C238.557 45.1712 237.003 45.3088 235.449 45.263C233.488 45.317 231.535 45.0036 229.689 44.339C228.303 43.7762 227.069 42.8947 226.087 41.766C225.134 40.5591 224.465 39.1524 224.132 37.651C223.788 35.9233 223.616 34.1657 223.618 32.404V7.507Z" fill="white"/>
<path d="M246.458 30.039C246.403 27.6817 246.823 25.3374 247.693 23.146C248.436 21.3137 249.518 19.6378 250.882 18.206C252.144 16.8794 253.692 15.8594 255.409 15.224C257.106 14.5272 258.925 14.177 260.759 14.194C262.604 14.1095 264.445 14.414 266.165 15.0876C267.884 15.7612 269.443 16.7889 270.739 18.104C273.208 20.676 274.442 24.484 274.442 29.421C274.456 29.9719 274.421 30.5231 274.339 31.068C274.339 31.582 274.236 32.096 274.236 32.611H255.1C255.184 33.4363 255.448 34.2331 255.875 34.9443C256.302 35.6556 256.881 36.264 257.57 36.726C259.283 37.8268 261.296 38.3662 263.33 38.269C264.85 38.2902 266.367 38.1524 267.858 37.858C269.125 37.6445 270.366 37.2993 271.561 36.828L272.693 43.722C272.282 43.928 271.664 44.134 270.841 44.442C270.009 44.7218 269.145 44.8949 268.269 44.957C267.285 45.158 266.288 45.295 265.286 45.367C264.256 45.471 263.126 45.574 262.096 45.574C259.705 45.6291 257.328 45.2097 255.1 44.34C253.261 43.6093 251.584 42.5256 250.162 41.15C248.891 39.706 247.913 38.029 247.282 36.212C246.692 34.2088 246.414 32.1268 246.458 30.039ZM266.212 26.747C266.184 26.0435 266.045 25.3489 265.8 24.689C265.596 24.0245 265.283 23.3986 264.874 22.837C264.386 22.2221 263.758 21.733 263.042 21.4108C262.326 21.0886 261.543 20.9426 260.759 20.985C259.909 20.9857 259.069 21.1606 258.289 21.499C257.644 21.7637 257.077 22.1888 256.643 22.734C256.181 23.2773 255.832 23.9068 255.615 24.586C255.395 25.259 255.223 25.9467 255.1 26.644H266.212" fill="white"/>
<path d="M289.36 38.578C290.474 38.6599 291.593 38.5202 292.653 38.167C292.961 37.9974 293.213 37.7413 293.377 37.4304C293.542 37.1194 293.611 36.7671 293.578 36.417C293.578 35.697 293.167 35.183 292.344 34.669C291.141 33.9507 289.865 33.364 288.537 32.919C287.2 32.405 285.965 31.891 284.937 31.376C283.952 30.9046 283.049 30.2794 282.261 29.524C281.505 28.7583 280.91 27.8487 280.512 26.849C280.074 25.6649 279.864 24.4083 279.895 23.146C279.838 21.8806 280.089 20.6204 280.627 19.4734C281.164 18.3264 281.972 17.327 282.981 16.561C285.039 14.915 287.92 14.091 291.521 14.091C293.282 14.1045 295.038 14.2768 296.768 14.606C298.104 14.8094 299.415 15.1547 300.678 15.636L299.237 22.22C298.208 21.91 297.179 21.602 296.047 21.294C294.802 20.9878 293.522 20.8493 292.241 20.882C289.566 20.882 288.331 21.602 288.331 23.042C288.35 23.36 288.42 23.6729 288.537 23.969C288.682 24.314 288.934 24.6028 289.257 24.792C289.566 24.998 290.08 25.306 290.595 25.615C291.212 25.923 291.932 26.129 292.858 26.541C294.45 27.1103 295.998 27.7979 297.488 28.598C298.569 29.0934 299.52 29.8328 300.266 30.758C300.977 31.4646 301.475 32.3559 301.706 33.331C302.014 34.4002 302.153 35.5109 302.118 36.623C302.183 37.9258 301.915 39.2238 301.339 40.394C300.763 41.5643 299.897 42.5683 298.825 43.311C296.665 44.854 293.578 45.574 289.463 45.574C287.245 45.6423 285.029 45.3999 282.879 44.854C281.644 44.5986 280.437 44.2193 279.278 43.722L280.718 36.829C282.158 37.3826 283.637 37.8295 285.142 38.166C286.528 38.4608 287.943 38.599 289.36 38.578Z" fill="white"/>
</svg>
