<svg width="66" height="23" viewBox="0 0 66 23" fill="none" xmlns="http://www.w3.org/2000/svg">
<path d="M7.28678 18L0.494781 0.959999H3.03878L9.80678 18H7.28678ZM-0.00921869 18V0.959999H2.77478V18H-0.00921869ZM7.98278 18V0.959999H10.7668V18H7.98278ZM14.2788 12.648V10.872H22.6068V12.648H14.2788ZM17.8068 18.384V16.104H17.9748V18.384H17.8068ZM13.0548 13.344V10.416H15.8388V13.344H13.0548ZM19.8228 10.872V9.984H22.6068V10.872H19.8228ZM22.6068 10.008H19.8228C19.8228 9.304 19.6308 8.736 19.2468 8.304C18.8788 7.872 18.3988 7.656 17.8068 7.656V5.376C18.7188 5.376 19.5348 5.576 20.2548 5.976C20.9908 6.376 21.5668 6.928 21.9828 7.632C22.3988 8.336 22.6068 9.128 22.6068 10.008ZM19.9908 14.088L22.4868 14.568C22.3748 15.32 22.1108 15.984 21.6948 16.56C21.2948 17.136 20.7748 17.584 20.1348 17.904C19.4948 18.224 18.7668 18.384 17.9508 18.384V16.104C18.4788 16.104 18.9268 15.936 19.2948 15.6C19.6788 15.248 19.9108 14.744 19.9908 14.088ZM13.0548 10.416C13.0548 9.456 13.2628 8.6 13.6788 7.848C14.0948 7.08 14.6628 6.48 15.3828 6.048C16.1028 5.6 16.9108 5.376 17.8068 5.376V7.656C17.1988 7.656 16.7188 7.896 16.3668 8.376C16.0148 8.856 15.8388 9.536 15.8388 10.416H13.0548ZM13.0548 13.344H15.8388C15.8388 14.208 16.0148 14.888 16.3668 15.384C16.7188 15.864 17.1988 16.104 17.8068 16.104V18.384C16.9108 18.384 16.1028 18.168 15.3828 17.736C14.6628 17.288 14.0948 16.688 13.6788 15.936C13.2628 15.168 13.0548 14.304 13.0548 13.344ZM30.6795 18L23.5755 5.76H26.4795L33.5835 18H30.6795ZM23.5755 18L27.1275 11.88H30.0315L26.4795 18H23.5755ZM27.1275 11.88L30.6795 5.76H33.5835L30.0315 11.88H27.1275ZM36.525 14.016V0.935999L39.309 0.959999V14.016H36.525ZM35.133 7.92V5.76H42.333V7.92H35.133ZM36.525 13.992H39.309C39.309 14.424 39.373 14.8 39.501 15.12C39.629 15.44 39.805 15.688 40.029 15.864C40.269 16.024 40.549 16.104 40.869 16.104L40.557 18.36C39.293 18.36 38.301 17.976 37.581 17.208C36.877 16.44 36.525 15.368 36.525 13.992ZM41.949 15.696L43.005 17.544C42.621 17.832 42.221 18.04 41.805 18.168C41.405 18.296 40.989 18.36 40.557 18.36L40.869 16.104C41.077 16.104 41.269 16.064 41.445 15.984C41.621 15.904 41.789 15.808 41.949 15.696ZM46.3365 18.192C45.8565 18.192 45.4565 18.04 45.1365 17.736C44.8325 17.416 44.6805 17.016 44.6805 16.536C44.6805 16.056 44.8325 15.656 45.1365 15.336C45.4565 15 45.8565 14.832 46.3365 14.832C46.8165 14.832 47.2165 15 47.5365 15.336C47.8725 15.656 48.0405 16.056 48.0405 16.536C48.0405 17.016 47.8725 17.416 47.5365 17.736C47.2165 18.04 46.8165 18.192 46.3365 18.192ZM54.1661 17.976C54.1661 19.352 53.8061 20.424 53.0861 21.192C52.3821 21.96 51.3981 22.344 50.1341 22.344L49.8221 20.088C50.1581 20.088 50.4381 20 50.6621 19.824C50.8861 19.664 51.0621 19.424 51.1901 19.104C51.3181 18.784 51.3821 18.408 51.3821 17.976H54.1661ZM48.7421 19.68C48.9021 19.792 49.0701 19.888 49.2461 19.968C49.4221 20.048 49.6141 20.088 49.8221 20.088L50.1341 22.344C49.7021 22.344 49.2861 22.28 48.8861 22.152C48.4701 22.024 48.0701 21.816 47.6861 21.528L48.7421 19.68ZM51.3821 18V5.76H54.1661V18H51.3821ZM52.9901 4.104C52.5101 4.104 52.1101 3.952 51.7901 3.648C51.4861 3.328 51.3341 2.928 51.3341 2.448C51.3341 1.968 51.4861 1.568 51.7901 1.248C52.1101 0.911999 52.5101 0.743999 52.9901 0.743999C53.4701 0.743999 53.8701 0.911999 54.1901 1.248C54.5261 1.568 54.6941 1.968 54.6941 2.448C54.6941 2.928 54.5261 3.328 54.1901 3.648C53.8701 3.952 53.4701 4.104 52.9901 4.104ZM62.9143 14.76C62.9143 14.408 62.7703 14.112 62.4823 13.872C62.1943 13.632 61.8183 13.408 61.3543 13.2C60.8903 12.992 60.4023 12.784 59.8903 12.576C59.3783 12.352 58.8903 12.088 58.4263 11.784C57.9783 11.48 57.6023 11.104 57.2983 10.656C57.0103 10.208 56.8663 9.656 56.8663 9C56.8663 9 56.9543 9 57.1303 9C57.3223 9 57.5463 9 57.8023 9C58.0743 9 58.3383 9 58.5943 9C58.8663 9 59.0903 9 59.2663 9C59.4423 9 59.5303 9 59.5303 9C59.5303 9.352 59.6743 9.648 59.9623 9.888C60.2663 10.128 60.6423 10.352 61.0903 10.56C61.5543 10.752 62.0423 10.96 62.5543 11.184C63.0663 11.392 63.5543 11.648 64.0183 11.952C64.4823 12.256 64.8583 12.632 65.1463 13.08C65.4343 13.528 65.5783 14.088 65.5783 14.76C65.5783 14.76 65.4903 14.76 65.3143 14.76C65.1383 14.76 64.9143 14.76 64.6423 14.76C64.3863 14.76 64.1223 14.76 63.8503 14.76C63.5943 14.76 63.3703 14.76 63.1783 14.76C63.0023 14.76 62.9143 14.76 62.9143 14.76ZM61.1143 18.36V16.104C61.6423 16.104 62.0743 15.976 62.4103 15.72C62.7463 15.464 62.9143 15.144 62.9143 14.76H65.5783C65.5783 15.48 65.3943 16.112 65.0263 16.656C64.6583 17.2 64.1383 17.624 63.4663 17.928C62.7943 18.216 62.0103 18.36 61.1143 18.36ZM56.8663 9C56.8663 8.296 57.0503 7.672 57.4183 7.128C57.7863 6.584 58.2823 6.16 58.9063 5.856C59.5463 5.536 60.2663 5.376 61.0663 5.376V7.632C60.6343 7.632 60.2663 7.76 59.9623 8.016C59.6743 8.272 59.5303 8.6 59.5303 9H56.8663ZM59.0983 14.064C59.1783 14.736 59.4023 15.248 59.7703 15.6C60.1543 15.936 60.6023 16.104 61.1143 16.104V18.36C60.3303 18.36 59.6103 18.208 58.9543 17.904C58.3143 17.584 57.7863 17.136 57.3703 16.56C56.9703 15.984 56.7063 15.312 56.5783 14.544L59.0983 14.064ZM63.0823 9.672C63.0023 8.984 62.7703 8.472 62.3863 8.136C62.0183 7.8 61.5703 7.632 61.0423 7.632V5.376C61.8583 5.376 62.5863 5.536 63.2263 5.856C63.8663 6.16 64.3863 6.6 64.7863 7.176C65.2023 7.736 65.4663 8.408 65.5783 9.192L63.0823 9.672Z" fill="white"/>
</svg>
