<svg width="76" height="23" viewBox="0 0 76 23" fill="none" xmlns="http://www.w3.org/2000/svg">
<path d="M6.72919 18L3.70519 9.84H6.46519L9.48919 18H6.72919ZM2.24119 11.136V8.856H4.28119V11.136H2.24119ZM2.24119 3.216V0.959999H4.28119V3.216H2.24119ZM6.51319 6.48V5.616H9.29719V6.48H6.51319ZM9.29719 5.64H6.51319C6.51319 4.872 6.31319 4.28 5.91319 3.864C5.51319 3.432 4.96119 3.216 4.25719 3.216V0.959999C5.24919 0.959999 6.12119 1.16 6.87319 1.56C7.62519 1.96 8.21719 2.512 8.64919 3.216C9.08119 3.92 9.29719 4.728 9.29719 5.64ZM9.29719 6.456C9.29719 7.368 9.08119 8.176 8.64919 8.88C8.21719 9.584 7.62519 10.136 6.87319 10.536C6.12119 10.936 5.24919 11.136 4.25719 11.136V8.856C4.96119 8.856 5.51319 8.648 5.91319 8.232C6.31319 7.8 6.51319 7.208 6.51319 6.456H9.29719ZM0.0571876 18V0.959999H2.84119V18H0.0571876ZM12.3999 12.648V10.872H20.7279V12.648H12.3999ZM15.9279 18.384V16.104H16.0959V18.384H15.9279ZM11.1759 13.344V10.416H13.9599V13.344H11.1759ZM17.9439 10.872V9.984H20.7279V10.872H17.9439ZM20.7279 10.008H17.9439C17.9439 9.304 17.7519 8.736 17.3679 8.304C16.9999 7.872 16.5199 7.656 15.9279 7.656V5.376C16.8399 5.376 17.6559 5.576 18.3759 5.976C19.1119 6.376 19.6879 6.928 20.1039 7.632C20.5199 8.336 20.7279 9.128 20.7279 10.008ZM18.1119 14.088L20.6079 14.568C20.4959 15.32 20.2319 15.984 19.8159 16.56C19.4159 17.136 18.8959 17.584 18.2559 17.904C17.6159 18.224 16.8879 18.384 16.0719 18.384V16.104C16.5999 16.104 17.0479 15.936 17.4159 15.6C17.7999 15.248 18.0319 14.744 18.1119 14.088ZM11.1759 10.416C11.1759 9.456 11.3839 8.6 11.7999 7.848C12.2159 7.08 12.7839 6.48 13.5039 6.048C14.2239 5.6 15.0319 5.376 15.9279 5.376V7.656C15.3199 7.656 14.8399 7.896 14.4879 8.376C14.1359 8.856 13.9599 9.536 13.9599 10.416H11.1759ZM11.1759 13.344H13.9599C13.9599 14.208 14.1359 14.888 14.4879 15.384C14.8399 15.864 15.3199 16.104 15.9279 16.104V18.384C15.0319 18.384 14.2239 18.168 13.5039 17.736C12.7839 17.288 12.2159 16.688 11.7999 15.936C11.3839 15.168 11.1759 14.304 11.1759 13.344ZM29.5294 18V9.864H32.3134V18H29.5294ZM26.6494 18.36L27.0094 16.2C27.5214 16.2 27.9614 16.072 28.3294 15.816C28.7134 15.544 29.0094 15.16 29.2174 14.664C29.4254 14.168 29.5294 13.584 29.5294 12.912L30.7774 12.792C30.7774 13.864 30.5934 14.824 30.2254 15.672C29.8574 16.504 29.3614 17.16 28.7374 17.64C28.1294 18.12 27.4334 18.36 26.6494 18.36ZM26.6494 18.36C25.8974 18.36 25.2174 18.192 24.6094 17.856C24.0174 17.52 23.5454 17.064 23.1934 16.488C22.8574 15.896 22.6894 15.232 22.6894 14.496L25.2334 14.376C25.2334 14.904 25.4094 15.344 25.7614 15.696C26.1294 16.032 26.5454 16.2 27.0094 16.2L26.6494 18.36ZM22.6894 14.496C22.6894 13.76 22.8814 13.104 23.2654 12.528C23.6654 11.952 24.2014 11.496 24.8734 11.16C25.5454 10.808 26.2974 10.632 27.1294 10.632L27.3694 12.552C26.7454 12.552 26.2334 12.72 25.8334 13.056C25.4334 13.392 25.2334 13.832 25.2334 14.376L22.6894 14.496ZM27.3694 12.552L27.1294 10.632H30.5374V12.552H27.3694ZM29.5294 12.912V9.984H30.7774V12.792L29.5294 12.912ZM32.3134 10.008H29.5294C29.5294 9.304 29.3374 8.736 28.9534 8.304C28.5854 7.872 28.1054 7.656 27.5134 7.656V5.376C28.4254 5.376 29.2414 5.576 29.9614 5.976C30.6974 6.376 31.2734 6.928 31.6894 7.632C32.1054 8.336 32.3134 9.128 32.3134 10.008ZM25.4974 9.672L22.9774 9.192C23.1054 8.424 23.3694 7.76 23.7694 7.2C24.1854 6.624 24.7134 6.176 25.3534 5.856C26.0094 5.536 26.7294 5.376 27.5134 5.376V7.656C27.0014 7.656 26.5534 7.824 26.1694 8.16C25.8014 8.496 25.5774 9 25.4974 9.672ZM34.5253 13.368V10.392H37.3093V13.368H34.5253ZM34.5253 10.416C34.5253 9.44 34.7333 8.576 35.1493 7.824C35.5653 7.072 36.1333 6.48 36.8533 6.048C37.5733 5.6 38.3813 5.376 39.2773 5.376V7.632C38.6693 7.632 38.1893 7.88 37.8373 8.376C37.4853 8.856 37.3093 9.536 37.3093 10.416H34.5253ZM41.2933 9.672C41.2133 8.984 40.9813 8.472 40.5973 8.136C40.2293 7.8 39.7813 7.632 39.2533 7.632V5.376C40.0693 5.376 40.7973 5.536 41.4373 5.856C42.0773 6.16 42.5973 6.6 42.9973 7.176C43.4133 7.736 43.6773 8.408 43.7893 9.192L41.2933 9.672ZM34.5253 13.344H37.3093C37.3093 14.208 37.4853 14.888 37.8373 15.384C38.1893 15.864 38.6693 16.104 39.2773 16.104V18.384C38.3813 18.384 37.5733 18.168 36.8533 17.736C36.1333 17.288 35.5653 16.688 35.1493 15.936C34.7333 15.168 34.5253 14.304 34.5253 13.344ZM41.2933 14.088L43.7893 14.568C43.6773 15.32 43.4133 15.984 42.9973 16.56C42.5973 17.136 42.0773 17.584 41.4373 17.904C40.7973 18.224 40.0693 18.384 39.2533 18.384V16.104C39.7813 16.104 40.2293 15.936 40.5973 15.6C40.9813 15.248 41.2133 14.744 41.2933 14.088ZM46.4586 14.016V0.935999L49.2426 0.959999V14.016H46.4586ZM45.0666 7.92V5.76H52.2666V7.92H45.0666ZM46.4586 13.992H49.2426C49.2426 14.424 49.3066 14.8 49.4346 15.12C49.5626 15.44 49.7386 15.688 49.9626 15.864C50.2026 16.024 50.4826 16.104 50.8026 16.104L50.4906 18.36C49.2266 18.36 48.2346 17.976 47.5146 17.208C46.8106 16.44 46.4586 15.368 46.4586 13.992ZM51.8826 15.696L52.9386 17.544C52.5546 17.832 52.1546 18.04 51.7386 18.168C51.3386 18.296 50.9226 18.36 50.4906 18.36L50.8026 16.104C51.0106 16.104 51.2026 16.064 51.3786 15.984C51.5546 15.904 51.7226 15.808 51.8826 15.696ZM56.2701 18.192C55.7901 18.192 55.3901 18.04 55.0701 17.736C54.7661 17.416 54.6141 17.016 54.6141 16.536C54.6141 16.056 54.7661 15.656 55.0701 15.336C55.3901 15 55.7901 14.832 56.2701 14.832C56.7501 14.832 57.1501 15 57.4701 15.336C57.8061 15.656 57.9741 16.056 57.9741 16.536C57.9741 17.016 57.8061 17.416 57.4701 17.736C57.1501 18.04 56.7501 18.192 56.2701 18.192ZM64.0997 17.976C64.0997 19.352 63.7397 20.424 63.0197 21.192C62.3157 21.96 61.3317 22.344 60.0677 22.344L59.7557 20.088C60.0917 20.088 60.3717 20 60.5957 19.824C60.8197 19.664 60.9957 19.424 61.1237 19.104C61.2517 18.784 61.3157 18.408 61.3157 17.976H64.0997ZM58.6757 19.68C58.8357 19.792 59.0037 19.888 59.1797 19.968C59.3557 20.048 59.5477 20.088 59.7557 20.088L60.0677 22.344C59.6357 22.344 59.2197 22.28 58.8197 22.152C58.4037 22.024 58.0037 21.816 57.6197 21.528L58.6757 19.68ZM61.3157 18V5.76H64.0997V18H61.3157ZM62.9237 4.104C62.4437 4.104 62.0437 3.952 61.7237 3.648C61.4197 3.328 61.2677 2.928 61.2677 2.448C61.2677 1.968 61.4197 1.568 61.7237 1.248C62.0437 0.911999 62.4437 0.743999 62.9237 0.743999C63.4037 0.743999 63.8037 0.911999 64.1237 1.248C64.4597 1.568 64.6277 1.968 64.6277 2.448C64.6277 2.928 64.4597 3.328 64.1237 3.648C63.8037 3.952 63.4037 4.104 62.9237 4.104ZM72.8479 14.76C72.8479 14.408 72.7039 14.112 72.4159 13.872C72.1279 13.632 71.7519 13.408 71.2879 13.2C70.8239 12.992 70.3359 12.784 69.8239 12.576C69.3119 12.352 68.8239 12.088 68.3599 11.784C67.9119 11.48 67.5359 11.104 67.2319 10.656C66.9439 10.208 66.7999 9.656 66.7999 9C66.7999 9 66.8879 9 67.0639 9C67.2559 9 67.4799 9 67.7359 9C68.0079 9 68.2719 9 68.5279 9C68.7999 9 69.0239 9 69.1999 9C69.3759 9 69.4639 9 69.4639 9C69.4639 9.352 69.6079 9.648 69.8959 9.888C70.1999 10.128 70.5759 10.352 71.0239 10.56C71.4879 10.752 71.9759 10.96 72.4879 11.184C72.9999 11.392 73.4879 11.648 73.9519 11.952C74.4159 12.256 74.7919 12.632 75.0799 13.08C75.3679 13.528 75.5119 14.088 75.5119 14.76C75.5119 14.76 75.4239 14.76 75.2479 14.76C75.0719 14.76 74.8479 14.76 74.5759 14.76C74.3199 14.76 74.0559 14.76 73.7839 14.76C73.5279 14.76 73.3039 14.76 73.1119 14.76C72.9359 14.76 72.8479 14.76 72.8479 14.76ZM71.0479 18.36V16.104C71.5759 16.104 72.0079 15.976 72.3439 15.72C72.6799 15.464 72.8479 15.144 72.8479 14.76H75.5119C75.5119 15.48 75.3279 16.112 74.9599 16.656C74.5919 17.2 74.0719 17.624 73.3999 17.928C72.7279 18.216 71.9439 18.36 71.0479 18.36ZM66.7999 9C66.7999 8.296 66.9839 7.672 67.3519 7.128C67.7199 6.584 68.2159 6.16 68.8399 5.856C69.4799 5.536 70.1999 5.376 70.9999 5.376V7.632C70.5679 7.632 70.1999 7.76 69.8959 8.016C69.6079 8.272 69.4639 8.6 69.4639 9H66.7999ZM69.0319 14.064C69.1119 14.736 69.3359 15.248 69.7039 15.6C70.0879 15.936 70.5359 16.104 71.0479 16.104V18.36C70.2639 18.36 69.5439 18.208 68.8879 17.904C68.2479 17.584 67.7199 17.136 67.3039 16.56C66.9039 15.984 66.6399 15.312 66.5119 14.544L69.0319 14.064ZM73.0159 9.672C72.9359 8.984 72.7039 8.472 72.3199 8.136C71.9519 7.8 71.5039 7.632 70.9759 7.632V5.376C71.7919 5.376 72.5199 5.536 73.1599 5.856C73.7999 6.16 74.3199 6.6 74.7199 7.176C75.1359 7.736 75.3999 8.408 75.5119 9.192L73.0159 9.672Z" fill="white"/>
</svg>
